ISO-10303-21;
HEADER;
/* Generated by software containing ST-Developer
 * from STEP Tools, Inc. (www.steptools.com) 
 */

FILE_DESCRIPTION(
/* description */ (''),
/* implementation_level */ '2;1');

FILE_NAME(
/* name */ 'lower_chassis.step',
/* time_stamp */ '2026-08-07T17:21:37-04:00',
/* author */ (''),
/* organization */ (''),
/* preprocessor_version */ 'ST-DEVELOPER v20.1',
/* originating_system */ 'Autodesk Translation Framework v15.8.0.0',
/* authorisation */ '');

FILE_SCHEMA (('AUTOMOTIVE_DESIGN { 1 0 10303 214 3 1 1 }'));
ENDSEC;

DATA;
#10=MECHANICAL_DESIGN_GEOMETRIC_PRESENTATION_REPRESENTATION('',(#13),#1485);
#11=SHAPE_REPRESENTATION_RELATIONSHIP('SRR','None',#1492,#12);
#12=ADVANCED_BREP_SHAPE_REPRESENTATION('',(#14),#1484);
#13=STYLED_ITEM('',(#1501),#14);
#14=MANIFOLD_SOLID_BREP('Body1',#881);
#15=FACE_BOUND('',#139,.T.);
#16=FACE_BOUND('',#140,.T.);
#17=FACE_BOUND('',#142,.T.);
#18=FACE_BOUND('',#143,.T.);
#19=FACE_BOUND('',#146,.T.);
#20=FACE_BOUND('',#147,.T.);
#21=FACE_BOUND('',#148,.T.);
#22=FACE_BOUND('',#149,.T.);
#23=FACE_BOUND('',#150,.T.);
#24=FACE_BOUND('',#151,.T.);
#25=FACE_BOUND('',#152,.T.);
#26=FACE_BOUND('',#153,.T.);
#27=FACE_BOUND('',#154,.T.);
#28=FACE_BOUND('',#155,.T.);
#29=FACE_BOUND('',#157,.T.);
#30=FACE_BOUND('',#158,.T.);
#31=FACE_BOUND('',#162,.T.);
#32=FACE_BOUND('',#163,.T.);
#33=FACE_BOUND('',#167,.T.);
#34=FACE_BOUND('',#172,.T.);
#35=FACE_BOUND('',#177,.T.);
#36=FACE_BOUND('',#182,.T.);
#37=FACE_BOUND('',#192,.T.);
#38=FACE_BOUND('',#193,.T.);
#39=FACE_BOUND('',#194,.T.);
#40=FACE_BOUND('',#195,.T.);
#41=FACE_BOUND('',#198,.T.);
#42=FACE_BOUND('',#199,.T.);
#43=FACE_BOUND('',#200,.T.);
#44=FACE_BOUND('',#201,.T.);
#45=FACE_BOUND('',#203,.T.);
#46=FACE_BOUND('',#204,.T.);
#47=FACE_BOUND('',#205,.T.);
#48=FACE_BOUND('',#206,.T.);
#49=FACE_BOUND('',#207,.T.);
#50=FACE_BOUND('',#208,.T.);
#51=PLANE('',#919);
#52=PLANE('',#920);
#53=PLANE('',#921);
#54=PLANE('',#922);
#55=PLANE('',#923);
#56=PLANE('',#924);
#57=PLANE('',#925);
#58=PLANE('',#926);
#59=PLANE('',#927);
#60=PLANE('',#938);
#61=PLANE('',#939);
#62=PLANE('',#940);
#63=PLANE('',#941);
#64=PLANE('',#947);
#65=PLANE('',#948);
#66=PLANE('',#954);
#67=PLANE('',#955);
#68=PLANE('',#961);
#69=PLANE('',#962);
#70=PLANE('',#968);
#71=PLANE('',#969);
#72=PLANE('',#982);
#73=PLANE('',#983);
#74=PLANE('',#984);
#75=PLANE('',#985);
#76=PLANE('',#986);
#77=FACE_OUTER_BOUND('',#125,.T.);
#78=FACE_OUTER_BOUND('',#126,.T.);
#79=FACE_OUTER_BOUND('',#127,.T.);
#80=FACE_OUTER_BOUND('',#128,.T.);
#81=FACE_OUTER_BOUND('',#129,.T.);
#82=FACE_OUTER_BOUND('',#130,.T.);
#83=FACE_OUTER_BOUND('',#131,.T.);
#84=FACE_OUTER_BOUND('',#132,.T.);
#85=FACE_OUTER_BOUND('',#133,.T.);
#86=FACE_OUTER_BOUND('',#134,.T.);
#87=FACE_OUTER_BOUND('',#135,.T.);
#88=FACE_OUTER_BOUND('',#136,.T.);
#89=FACE_OUTER_BOUND('',#137,.T.);
#90=FACE_OUTER_BOUND('',#138,.T.);
#91=FACE_OUTER_BOUND('',#141,.T.);
#92=FACE_OUTER_BOUND('',#144,.T.);
#93=FACE_OUTER_BOUND('',#145,.T.);
#94=FACE_OUTER_BOUND('',#156,.T.);
#95=FACE_OUTER_BOUND('',#159,.T.);
#96=FACE_OUTER_BOUND('',#160,.T.);
#97=FACE_OUTER_BOUND('',#161,.T.);
#98=FACE_OUTER_BOUND('',#164,.T.);
#99=FACE_OUTER_BOUND('',#165,.T.);
#100=FACE_OUTER_BOUND('',#166,.T.);
#101=FACE_OUTER_BOUND('',#168,.T.);
#102=FACE_OUTER_BOUND('',#169,.T.);
#103=FACE_OUTER_BOUND('',#170,.T.);
#104=FACE_OUTER_BOUND('',#171,.T.);
#105=FACE_OUTER_BOUND('',#173,.T.);
#106=FACE_OUTER_BOUND('',#174,.T.);
#107=FACE_OUTER_BOUND('',#175,.T.);
#108=FACE_OUTER_BOUND('',#176,.T.);
#109=FACE_OUTER_BOUND('',#178,.T.);
#110=FACE_OUTER_BOUND('',#179,.T.);
#111=FACE_OUTER_BOUND('',#180,.T.);
#112=FACE_OUTER_BOUND('',#181,.T.);
#113=FACE_OUTER_BOUND('',#183,.T.);
#114=FACE_OUTER_BOUND('',#184,.T.);
#115=FACE_OUTER_BOUND('',#185,.T.);
#116=FACE_OUTER_BOUND('',#186,.T.);
#117=FACE_OUTER_BOUND('',#187,.T.);
#118=FACE_OUTER_BOUND('',#188,.T.);
#119=FACE_OUTER_BOUND('',#189,.T.);
#120=FACE_OUTER_BOUND('',#190,.T.);
#121=FACE_OUTER_BOUND('',#191,.T.);
#122=FACE_OUTER_BOUND('',#196,.T.);
#123=FACE_OUTER_BOUND('',#197,.T.);
#124=FACE_OUTER_BOUND('',#202,.T.);
#125=EDGE_LOOP('',(#583,#584,#585,#586));
#126=EDGE_LOOP('',(#587,#588,#589,#590));
#127=EDGE_LOOP('',(#591,#592,#593,#594));
#128=EDGE_LOOP('',(#595,#596,#597,#598));
#129=EDGE_LOOP('',(#599,#600,#601,#602));
#130=EDGE_LOOP('',(#603,#604,#605,#606));
#131=EDGE_LOOP('',(#607,#608,#609,#610));
#132=EDGE_LOOP('',(#611,#612,#613,#614));
#133=EDGE_LOOP('',(#615,#616,#617,#618));
#134=EDGE_LOOP('',(#619,#620,#621,#622));
#135=EDGE_LOOP('',(#623,#624,#625,#626));
#136=EDGE_LOOP('',(#627,#628,#629,#630));
#137=EDGE_LOOP('',(#631,#632,#633,#634));
#138=EDGE_LOOP('',(#635,#636,#637,#638));
#139=EDGE_LOOP('',(#639));
#140=EDGE_LOOP('',(#640));
#141=EDGE_LOOP('',(#641,#642,#643,#644));
#142=EDGE_LOOP('',(#645));
#143=EDGE_LOOP('',(#646));
#144=EDGE_LOOP('',(#647,#648,#649,#650));
#145=EDGE_LOOP('',(#651,#652,#653,#654,#655,#656,#657,#658,#659,#660,#661,
#662));
#146=EDGE_LOOP('',(#663));
#147=EDGE_LOOP('',(#664));
#148=EDGE_LOOP('',(#665));
#149=EDGE_LOOP('',(#666));
#150=EDGE_LOOP('',(#667));
#151=EDGE_LOOP('',(#668));
#152=EDGE_LOOP('',(#669));
#153=EDGE_LOOP('',(#670));
#154=EDGE_LOOP('',(#671));
#155=EDGE_LOOP('',(#672));
#156=EDGE_LOOP('',(#673,#674,#675,#676));
#157=EDGE_LOOP('',(#677));
#158=EDGE_LOOP('',(#678));
#159=EDGE_LOOP('',(#679,#680,#681,#682));
#160=EDGE_LOOP('',(#683,#684,#685,#686));
#161=EDGE_LOOP('',(#687,#688,#689,#690));
#162=EDGE_LOOP('',(#691));
#163=EDGE_LOOP('',(#692));
#164=EDGE_LOOP('',(#693,#694,#695,#696));
#165=EDGE_LOOP('',(#697,#698,#699,#700));
#166=EDGE_LOOP('',(#701));
#167=EDGE_LOOP('',(#702));
#168=EDGE_LOOP('',(#703));
#169=EDGE_LOOP('',(#704,#705,#706,#707));
#170=EDGE_LOOP('',(#708,#709,#710,#711));
#171=EDGE_LOOP('',(#712));
#172=EDGE_LOOP('',(#713));
#173=EDGE_LOOP('',(#714));
#174=EDGE_LOOP('',(#715,#716,#717,#718));
#175=EDGE_LOOP('',(#719,#720,#721,#722));
#176=EDGE_LOOP('',(#723));
#177=EDGE_LOOP('',(#724));
#178=EDGE_LOOP('',(#725));
#179=EDGE_LOOP('',(#726,#727,#728,#729));
#180=EDGE_LOOP('',(#730,#731,#732,#733));
#181=EDGE_LOOP('',(#734));
#182=EDGE_LOOP('',(#735));
#183=EDGE_LOOP('',(#736));
#184=EDGE_LOOP('',(#737,#738,#739,#740));
#185=EDGE_LOOP('',(#741,#742,#743,#744));
#186=EDGE_LOOP('',(#745,#746,#747,#748));
#187=EDGE_LOOP('',(#749,#750,#751,#752));
#188=EDGE_LOOP('',(#753,#754,#755,#756));
#189=EDGE_LOOP('',(#757,#758,#759,#760));
#190=EDGE_LOOP('',(#761,#762,#763,#764,#765,#766,#767,#768));
#191=EDGE_LOOP('',(#769,#770,#771,#772,#773,#774,#775,#776));
#192=EDGE_LOOP('',(#777));
#193=EDGE_LOOP('',(#778));
#194=EDGE_LOOP('',(#779));
#195=EDGE_LOOP('',(#780));
#196=EDGE_LOOP('',(#781,#782,#783,#784,#785,#786,#787,#788));
#197=EDGE_LOOP('',(#789,#790,#791,#792,#793,#794,#795,#796));
#198=EDGE_LOOP('',(#797));
#199=EDGE_LOOP('',(#798));
#200=EDGE_LOOP('',(#799));
#201=EDGE_LOOP('',(#800));
#202=EDGE_LOOP('',(#801,#802,#803,#804));
#203=EDGE_LOOP('',(#805));
#204=EDGE_LOOP('',(#806));
#205=EDGE_LOOP('',(#807));
#206=EDGE_LOOP('',(#808));
#207=EDGE_LOOP('',(#809));
#208=EDGE_LOOP('',(#810));
#209=LINE('',#1248,#279);
#210=LINE('',#1254,#280);
#211=LINE('',#1260,#281);
#212=LINE('',#1266,#282);
#213=LINE('',#1272,#283);
#214=LINE('',#1278,#284);
#215=LINE('',#1284,#285);
#216=LINE('',#1290,#286);
#217=LINE('',#1295,#287);
#218=LINE('',#1297,#288);
#219=LINE('',#1299,#289);
#220=LINE('',#1300,#290);
#221=LINE('',#1304,#291);
#222=LINE('',#1306,#292);
#223=LINE('',#1308,#293);
#224=LINE('',#1309,#294);
#225=LINE('',#1313,#295);
#226=LINE('',#1315,#296);
#227=LINE('',#1317,#297);
#228=LINE('',#1318,#298);
#229=LINE('',#1322,#299);
#230=LINE('',#1324,#300);
#231=LINE('',#1326,#301);
#232=LINE('',#1327,#302);
#233=LINE('',#1331,#303);
#234=LINE('',#1332,#304);
#235=LINE('',#1333,#305);
#236=LINE('',#1336,#306);
#237=LINE('',#1337,#307);
#238=LINE('',#1341,#308);
#239=LINE('',#1342,#309);
#240=LINE('',#1343,#310);
#241=LINE('',#1346,#311);
#242=LINE('',#1347,#312);
#243=LINE('',#1350,#313);
#244=LINE('',#1352,#314);
#245=LINE('',#1354,#315);
#246=LINE('',#1356,#316);
#247=LINE('',#1358,#317);
#248=LINE('',#1360,#318);
#249=LINE('',#1361,#319);
#250=LINE('',#1362,#320);
#251=LINE('',#1384,#321);
#252=LINE('',#1385,#322);
#253=LINE('',#1387,#323);
#254=LINE('',#1389,#324);
#255=LINE('',#1390,#325);
#256=LINE('',#1392,#326);
#257=LINE('',#1397,#327);
#258=LINE('',#1402,#328);
#259=LINE('',#1409,#329);
#260=LINE('',#1414,#330);
#261=LINE('',#1421,#331);
#262=LINE('',#1426,#332);
#263=LINE('',#1433,#333);
#264=LINE('',#1438,#334);
#265=LINE('',#1443,#335);
#266=LINE('',#1447,#336);
#267=LINE('',#1451,#337);
#268=LINE('',#1455,#338);
#269=LINE('',#1459,#339);
#270=LINE('',#1463,#340);
#271=LINE('',#1468,#341);
#272=LINE('',#1469,#342);
#273=LINE('',#1470,#343);
#274=LINE('',#1473,#344);
#275=LINE('',#1474,#345);
#276=LINE('',#1477,#346);
#277=LINE('',#1478,#347);
#278=LINE('',#1480,#348);
#279=VECTOR('',#993,1.7);
#280=VECTOR('',#1000,1.7);
#281=VECTOR('',#1007,1.70000000000002);
#282=VECTOR('',#1014,1.70000000000002);
#283=VECTOR('',#1021,1.7);
#284=VECTOR('',#1028,1.7);
#285=VECTOR('',#1035,1.70000000000002);
#286=VECTOR('',#1042,1.70000000000002);
#287=VECTOR('',#1047,10.);
#288=VECTOR('',#1048,10.);
#289=VECTOR('',#1049,10.);
#290=VECTOR('',#1050,10.);
#291=VECTOR('',#1053,10.);
#292=VECTOR('',#1054,10.);
#293=VECTOR('',#1055,10.);
#294=VECTOR('',#1056,10.);
#295=VECTOR('',#1059,10.);
#296=VECTOR('',#1060,10.);
#297=VECTOR('',#1061,10.);
#298=VECTOR('',#1062,10.);
#299=VECTOR('',#1065,10.);
#300=VECTOR('',#1066,10.);
#301=VECTOR('',#1067,10.);
#302=VECTOR('',#1068,10.);
#303=VECTOR('',#1071,10.);
#304=VECTOR('',#1072,10.);
#305=VECTOR('',#1073,10.);
#306=VECTOR('',#1076,10.);
#307=VECTOR('',#1077,10.);
#308=VECTOR('',#1080,10.);
#309=VECTOR('',#1081,10.);
#310=VECTOR('',#1082,10.);
#311=VECTOR('',#1085,10.);
#312=VECTOR('',#1086,10.);
#313=VECTOR('',#1089,10.);
#314=VECTOR('',#1090,10.);
#315=VECTOR('',#1091,10.);
#316=VECTOR('',#1092,10.);
#317=VECTOR('',#1093,10.);
#318=VECTOR('',#1094,10.);
#319=VECTOR('',#1095,10.);
#320=VECTOR('',#1096,10.);
#321=VECTOR('',#1119,10.);
#322=VECTOR('',#1120,10.);
#323=VECTOR('',#1123,10.);
#324=VECTOR('',#1126,10.);
#325=VECTOR('',#1127,10.);
#326=VECTOR('',#1130,10.);
#327=VECTOR('',#1135,1.7);
#328=VECTOR('',#1142,5.);
#329=VECTOR('',#1151,1.7);
#330=VECTOR('',#1158,5.);
#331=VECTOR('',#1167,1.7);
#332=VECTOR('',#1174,5.);
#333=VECTOR('',#1183,1.7);
#334=VECTOR('',#1190,5.);
#335=VECTOR('',#1197,1.7);
#336=VECTOR('',#1202,1.7);
#337=VECTOR('',#1207,1.7);
#338=VECTOR('',#1212,1.7);
#339=VECTOR('',#1217,1.7);
#340=VECTOR('',#1222,1.7);
#341=VECTOR('',#1227,10.);
#342=VECTOR('',#1228,10.);
#343=VECTOR('',#1229,10.);
#344=VECTOR('',#1232,10.);
#345=VECTOR('',#1233,10.);
#346=VECTOR('',#1236,10.);
#347=VECTOR('',#1237,10.);
#348=VECTOR('',#1240,10.);
#349=CIRCLE('',#896,1.7);
#350=CIRCLE('',#897,1.7);
#351=CIRCLE('',#899,1.7);
#352=CIRCLE('',#900,1.7);
#353=CIRCLE('',#902,1.70000000000002);
#354=CIRCLE('',#903,1.70000000000002);
#355=CIRCLE('',#905,1.70000000000002);
#356=CIRCLE('',#906,1.70000000000002);
#357=CIRCLE('',#908,1.7);
#358=CIRCLE('',#909,1.7);
#359=CIRCLE('',#911,1.7);
#360=CIRCLE('',#912,1.7);
#361=CIRCLE('',#914,1.70000000000002);
#362=CIRCLE('',#915,1.70000000000002);
#363=CIRCLE('',#917,1.70000000000002);
#364=CIRCLE('',#918,1.70000000000002);
#365=CIRCLE('',#928,5.);
#366=CIRCLE('',#929,5.);
#367=CIRCLE('',#930,1.7);
#368=CIRCLE('',#931,1.7);
#369=CIRCLE('',#932,1.7);
#370=CIRCLE('',#933,1.7);
#371=CIRCLE('',#934,1.7);
#372=CIRCLE('',#935,1.7);
#373=CIRCLE('',#936,5.);
#374=CIRCLE('',#937,5.);
#375=CIRCLE('',#943,1.7);
#376=CIRCLE('',#944,1.7);
#377=CIRCLE('',#946,5.);
#378=CIRCLE('',#950,1.7);
#379=CIRCLE('',#951,1.7);
#380=CIRCLE('',#953,5.);
#381=CIRCLE('',#957,1.7);
#382=CIRCLE('',#958,1.7);
#383=CIRCLE('',#960,5.);
#384=CIRCLE('',#964,1.7);
#385=CIRCLE('',#965,1.7);
#386=CIRCLE('',#967,5.);
#387=CIRCLE('',#971,1.7);
#388=CIRCLE('',#973,1.7);
#389=CIRCLE('',#975,1.7);
#390=CIRCLE('',#977,1.7);
#391=CIRCLE('',#979,1.7);
#392=CIRCLE('',#981,1.7);
#393=VERTEX_POINT('',#1245);
#394=VERTEX_POINT('',#1247);
#395=VERTEX_POINT('',#1251);
#396=VERTEX_POINT('',#1253);
#397=VERTEX_POINT('',#1257);
#398=VERTEX_POINT('',#1259);
#399=VERTEX_POINT('',#1263);
#400=VERTEX_POINT('',#1265);
#401=VERTEX_POINT('',#1269);
#402=VERTEX_POINT('',#1271);
#403=VERTEX_POINT('',#1275);
#404=VERTEX_POINT('',#1277);
#405=VERTEX_POINT('',#1281);
#406=VERTEX_POINT('',#1283);
#407=VERTEX_POINT('',#1287);
#408=VERTEX_POINT('',#1289);
#409=VERTEX_POINT('',#1293);
#410=VERTEX_POINT('',#1294);
#411=VERTEX_POINT('',#1296);
#412=VERTEX_POINT('',#1298);
#413=VERTEX_POINT('',#1302);
#414=VERTEX_POINT('',#1303);
#415=VERTEX_POINT('',#1305);
#416=VERTEX_POINT('',#1307);
#417=VERTEX_POINT('',#1311);
#418=VERTEX_POINT('',#1312);
#419=VERTEX_POINT('',#1314);
#420=VERTEX_POINT('',#1316);
#421=VERTEX_POINT('',#1320);
#422=VERTEX_POINT('',#1321);
#423=VERTEX_POINT('',#1323);
#424=VERTEX_POINT('',#1325);
#425=VERTEX_POINT('',#1329);
#426=VERTEX_POINT('',#1330);
#427=VERTEX_POINT('',#1335);
#428=VERTEX_POINT('',#1339);
#429=VERTEX_POINT('',#1340);
#430=VERTEX_POINT('',#1345);
#431=VERTEX_POINT('',#1349);
#432=VERTEX_POINT('',#1351);
#433=VERTEX_POINT('',#1353);
#434=VERTEX_POINT('',#1355);
#435=VERTEX_POINT('',#1357);
#436=VERTEX_POINT('',#1359);
#437=VERTEX_POINT('',#1363);
#438=VERTEX_POINT('',#1365);
#439=VERTEX_POINT('',#1367);
#440=VERTEX_POINT('',#1369);
#441=VERTEX_POINT('',#1371);
#442=VERTEX_POINT('',#1373);
#443=VERTEX_POINT('',#1375);
#444=VERTEX_POINT('',#1377);
#445=VERTEX_POINT('',#1379);
#446=VERTEX_POINT('',#1381);
#447=VERTEX_POINT('',#1394);
#448=VERTEX_POINT('',#1396);
#449=VERTEX_POINT('',#1400);
#450=VERTEX_POINT('',#1406);
#451=VERTEX_POINT('',#1408);
#452=VERTEX_POINT('',#1412);
#453=VERTEX_POINT('',#1418);
#454=VERTEX_POINT('',#1420);
#455=VERTEX_POINT('',#1424);
#456=VERTEX_POINT('',#1430);
#457=VERTEX_POINT('',#1432);
#458=VERTEX_POINT('',#1436);
#459=VERTEX_POINT('',#1442);
#460=VERTEX_POINT('',#1446);
#461=VERTEX_POINT('',#1450);
#462=VERTEX_POINT('',#1454);
#463=VERTEX_POINT('',#1458);
#464=VERTEX_POINT('',#1462);
#465=VERTEX_POINT('',#1466);
#466=VERTEX_POINT('',#1467);
#467=VERTEX_POINT('',#1472);
#468=VERTEX_POINT('',#1476);
#469=EDGE_CURVE('',#393,#393,#349,.T.);
#470=EDGE_CURVE('',#393,#394,#209,.T.);
#471=EDGE_CURVE('',#394,#394,#350,.T.);
#472=EDGE_CURVE('',#395,#395,#351,.T.);
#473=EDGE_CURVE('',#395,#396,#210,.T.);
#474=EDGE_CURVE('',#396,#396,#352,.T.);
#475=EDGE_CURVE('',#397,#397,#353,.T.);
#476=EDGE_CURVE('',#397,#398,#211,.T.);
#477=EDGE_CURVE('',#398,#398,#354,.T.);
#478=EDGE_CURVE('',#399,#399,#355,.T.);
#479=EDGE_CURVE('',#399,#400,#212,.T.);
#480=EDGE_CURVE('',#400,#400,#356,.T.);
#481=EDGE_CURVE('',#401,#401,#357,.T.);
#482=EDGE_CURVE('',#401,#402,#213,.T.);
#483=EDGE_CURVE('',#402,#402,#358,.T.);
#484=EDGE_CURVE('',#403,#403,#359,.T.);
#485=EDGE_CURVE('',#403,#404,#214,.T.);
#486=EDGE_CURVE('',#404,#404,#360,.T.);
#487=EDGE_CURVE('',#405,#405,#361,.T.);
#488=EDGE_CURVE('',#405,#406,#215,.T.);
#489=EDGE_CURVE('',#406,#406,#362,.T.);
#490=EDGE_CURVE('',#407,#407,#363,.T.);
#491=EDGE_CURVE('',#407,#408,#216,.T.);
#492=EDGE_CURVE('',#408,#408,#364,.T.);
#493=EDGE_CURVE('',#409,#410,#217,.T.);
#494=EDGE_CURVE('',#410,#411,#218,.T.);
#495=EDGE_CURVE('',#411,#412,#219,.T.);
#496=EDGE_CURVE('',#412,#409,#220,.T.);
#497=EDGE_CURVE('',#413,#414,#221,.T.);
#498=EDGE_CURVE('',#414,#415,#222,.T.);
#499=EDGE_CURVE('',#415,#416,#223,.T.);
#500=EDGE_CURVE('',#416,#413,#224,.T.);
#501=EDGE_CURVE('',#417,#418,#225,.T.);
#502=EDGE_CURVE('',#418,#419,#226,.T.);
#503=EDGE_CURVE('',#419,#420,#227,.T.);
#504=EDGE_CURVE('',#420,#417,#228,.T.);
#505=EDGE_CURVE('',#421,#422,#229,.T.);
#506=EDGE_CURVE('',#422,#423,#230,.T.);
#507=EDGE_CURVE('',#423,#424,#231,.T.);
#508=EDGE_CURVE('',#424,#421,#232,.T.);
#509=EDGE_CURVE('',#425,#426,#233,.T.);
#510=EDGE_CURVE('',#425,#421,#234,.T.);
#511=EDGE_CURVE('',#426,#424,#235,.T.);
#512=EDGE_CURVE('',#426,#427,#236,.T.);
#513=EDGE_CURVE('',#427,#423,#237,.T.);
#514=EDGE_CURVE('',#428,#429,#238,.T.);
#515=EDGE_CURVE('',#428,#411,#239,.T.);
#516=EDGE_CURVE('',#429,#410,#240,.T.);
#517=EDGE_CURVE('',#429,#430,#241,.T.);
#518=EDGE_CURVE('',#430,#409,#242,.T.);
#519=EDGE_CURVE('',#427,#431,#243,.T.);
#520=EDGE_CURVE('',#431,#432,#244,.T.);
#521=EDGE_CURVE('',#432,#433,#245,.T.);
#522=EDGE_CURVE('',#433,#434,#246,.T.);
#523=EDGE_CURVE('',#434,#435,#247,.T.);
#524=EDGE_CURVE('',#435,#436,#248,.T.);
#525=EDGE_CURVE('',#436,#428,#249,.T.);
#526=EDGE_CURVE('',#430,#425,#250,.T.);
#527=EDGE_CURVE('',#437,#437,#365,.T.);
#528=EDGE_CURVE('',#438,#438,#366,.T.);
#529=EDGE_CURVE('',#439,#439,#367,.T.);
#530=EDGE_CURVE('',#440,#440,#368,.T.);
#531=EDGE_CURVE('',#441,#441,#369,.T.);
#532=EDGE_CURVE('',#442,#442,#370,.T.);
#533=EDGE_CURVE('',#443,#443,#371,.T.);
#534=EDGE_CURVE('',#444,#444,#372,.T.);
#535=EDGE_CURVE('',#445,#445,#373,.T.);
#536=EDGE_CURVE('',#446,#446,#374,.T.);
#537=EDGE_CURVE('',#431,#415,#251,.T.);
#538=EDGE_CURVE('',#432,#414,#252,.T.);
#539=EDGE_CURVE('',#433,#413,#253,.T.);
#540=EDGE_CURVE('',#434,#417,#254,.T.);
#541=EDGE_CURVE('',#435,#420,#255,.T.);
#542=EDGE_CURVE('',#436,#419,#256,.T.);
#543=EDGE_CURVE('',#447,#447,#375,.T.);
#544=EDGE_CURVE('',#447,#448,#257,.T.);
#545=EDGE_CURVE('',#448,#448,#376,.T.);
#546=EDGE_CURVE('',#449,#449,#377,.T.);
#547=EDGE_CURVE('',#449,#446,#258,.T.);
#548=EDGE_CURVE('',#450,#450,#378,.T.);
#549=EDGE_CURVE('',#450,#451,#259,.T.);
#550=EDGE_CURVE('',#451,#451,#379,.T.);
#551=EDGE_CURVE('',#452,#452,#380,.T.);
#552=EDGE_CURVE('',#452,#437,#260,.T.);
#553=EDGE_CURVE('',#453,#453,#381,.T.);
#554=EDGE_CURVE('',#453,#454,#261,.T.);
#555=EDGE_CURVE('',#454,#454,#382,.T.);
#556=EDGE_CURVE('',#455,#455,#383,.T.);
#557=EDGE_CURVE('',#455,#445,#262,.T.);
#558=EDGE_CURVE('',#456,#456,#384,.T.);
#559=EDGE_CURVE('',#456,#457,#263,.T.);
#560=EDGE_CURVE('',#457,#457,#385,.T.);
#561=EDGE_CURVE('',#458,#458,#386,.T.);
#562=EDGE_CURVE('',#458,#438,#264,.T.);
#563=EDGE_CURVE('',#444,#459,#265,.T.);
#564=EDGE_CURVE('',#459,#459,#387,.T.);
#565=EDGE_CURVE('',#443,#460,#266,.T.);
#566=EDGE_CURVE('',#460,#460,#388,.T.);
#567=EDGE_CURVE('',#442,#461,#267,.T.);
#568=EDGE_CURVE('',#461,#461,#389,.T.);
#569=EDGE_CURVE('',#441,#462,#268,.T.);
#570=EDGE_CURVE('',#462,#462,#390,.T.);
#571=EDGE_CURVE('',#440,#463,#269,.T.);
#572=EDGE_CURVE('',#463,#463,#391,.T.);
#573=EDGE_CURVE('',#439,#464,#270,.T.);
#574=EDGE_CURVE('',#464,#464,#392,.T.);
#575=EDGE_CURVE('',#465,#466,#271,.T.);
#576=EDGE_CURVE('',#466,#412,#272,.T.);
#577=EDGE_CURVE('',#465,#418,#273,.T.);
#578=EDGE_CURVE('',#467,#465,#274,.T.);
#579=EDGE_CURVE('',#467,#416,#275,.T.);
#580=EDGE_CURVE('',#468,#467,#276,.T.);
#581=EDGE_CURVE('',#468,#422,#277,.T.);
#582=EDGE_CURVE('',#466,#468,#278,.T.);
#583=ORIENTED_EDGE('',*,*,#469,.F.);
#584=ORIENTED_EDGE('',*,*,#470,.T.);
#585=ORIENTED_EDGE('',*,*,#471,.F.);
#586=ORIENTED_EDGE('',*,*,#470,.F.);
#587=ORIENTED_EDGE('',*,*,#472,.F.);
#588=ORIENTED_EDGE('',*,*,#473,.T.);
#589=ORIENTED_EDGE('',*,*,#474,.F.);
#590=ORIENTED_EDGE('',*,*,#473,.F.);
#591=ORIENTED_EDGE('',*,*,#475,.F.);
#592=ORIENTED_EDGE('',*,*,#476,.T.);
#593=ORIENTED_EDGE('',*,*,#477,.F.);
#594=ORIENTED_EDGE('',*,*,#476,.F.);
#595=ORIENTED_EDGE('',*,*,#478,.F.);
#596=ORIENTED_EDGE('',*,*,#479,.T.);
#597=ORIENTED_EDGE('',*,*,#480,.F.);
#598=ORIENTED_EDGE('',*,*,#479,.F.);
#599=ORIENTED_EDGE('',*,*,#481,.F.);
#600=ORIENTED_EDGE('',*,*,#482,.T.);
#601=ORIENTED_EDGE('',*,*,#483,.F.);
#602=ORIENTED_EDGE('',*,*,#482,.F.);
#603=ORIENTED_EDGE('',*,*,#484,.F.);
#604=ORIENTED_EDGE('',*,*,#485,.T.);
#605=ORIENTED_EDGE('',*,*,#486,.F.);
#606=ORIENTED_EDGE('',*,*,#485,.F.);
#607=ORIENTED_EDGE('',*,*,#487,.F.);
#608=ORIENTED_EDGE('',*,*,#488,.T.);
#609=ORIENTED_EDGE('',*,*,#489,.F.);
#610=ORIENTED_EDGE('',*,*,#488,.F.);
#611=ORIENTED_EDGE('',*,*,#490,.F.);
#612=ORIENTED_EDGE('',*,*,#491,.T.);
#613=ORIENTED_EDGE('',*,*,#492,.F.);
#614=ORIENTED_EDGE('',*,*,#491,.F.);
#615=ORIENTED_EDGE('',*,*,#493,.T.);
#616=ORIENTED_EDGE('',*,*,#494,.T.);
#617=ORIENTED_EDGE('',*,*,#495,.T.);
#618=ORIENTED_EDGE('',*,*,#496,.T.);
#619=ORIENTED_EDGE('',*,*,#497,.T.);
#620=ORIENTED_EDGE('',*,*,#498,.T.);
#621=ORIENTED_EDGE('',*,*,#499,.T.);
#622=ORIENTED_EDGE('',*,*,#500,.T.);
#623=ORIENTED_EDGE('',*,*,#501,.T.);
#624=ORIENTED_EDGE('',*,*,#502,.T.);
#625=ORIENTED_EDGE('',*,*,#503,.T.);
#626=ORIENTED_EDGE('',*,*,#504,.T.);
#627=ORIENTED_EDGE('',*,*,#505,.T.);
#628=ORIENTED_EDGE('',*,*,#506,.T.);
#629=ORIENTED_EDGE('',*,*,#507,.T.);
#630=ORIENTED_EDGE('',*,*,#508,.T.);
#631=ORIENTED_EDGE('',*,*,#509,.F.);
#632=ORIENTED_EDGE('',*,*,#510,.T.);
#633=ORIENTED_EDGE('',*,*,#508,.F.);
#634=ORIENTED_EDGE('',*,*,#511,.F.);
#635=ORIENTED_EDGE('',*,*,#512,.F.);
#636=ORIENTED_EDGE('',*,*,#511,.T.);
#637=ORIENTED_EDGE('',*,*,#507,.F.);
#638=ORIENTED_EDGE('',*,*,#513,.F.);
#639=ORIENTED_EDGE('',*,*,#472,.T.);
#640=ORIENTED_EDGE('',*,*,#484,.T.);
#641=ORIENTED_EDGE('',*,*,#514,.F.);
#642=ORIENTED_EDGE('',*,*,#515,.T.);
#643=ORIENTED_EDGE('',*,*,#494,.F.);
#644=ORIENTED_EDGE('',*,*,#516,.F.);
#645=ORIENTED_EDGE('',*,*,#478,.T.);
#646=ORIENTED_EDGE('',*,*,#490,.T.);
#647=ORIENTED_EDGE('',*,*,#517,.F.);
#648=ORIENTED_EDGE('',*,*,#516,.T.);
#649=ORIENTED_EDGE('',*,*,#493,.F.);
#650=ORIENTED_EDGE('',*,*,#518,.F.);
#651=ORIENTED_EDGE('',*,*,#512,.T.);
#652=ORIENTED_EDGE('',*,*,#519,.T.);
#653=ORIENTED_EDGE('',*,*,#520,.T.);
#654=ORIENTED_EDGE('',*,*,#521,.T.);
#655=ORIENTED_EDGE('',*,*,#522,.T.);
#656=ORIENTED_EDGE('',*,*,#523,.T.);
#657=ORIENTED_EDGE('',*,*,#524,.T.);
#658=ORIENTED_EDGE('',*,*,#525,.T.);
#659=ORIENTED_EDGE('',*,*,#514,.T.);
#660=ORIENTED_EDGE('',*,*,#517,.T.);
#661=ORIENTED_EDGE('',*,*,#526,.T.);
#662=ORIENTED_EDGE('',*,*,#509,.T.);
#663=ORIENTED_EDGE('',*,*,#527,.T.);
#664=ORIENTED_EDGE('',*,*,#528,.T.);
#665=ORIENTED_EDGE('',*,*,#529,.T.);
#666=ORIENTED_EDGE('',*,*,#530,.T.);
#667=ORIENTED_EDGE('',*,*,#531,.T.);
#668=ORIENTED_EDGE('',*,*,#532,.T.);
#669=ORIENTED_EDGE('',*,*,#533,.T.);
#670=ORIENTED_EDGE('',*,*,#534,.T.);
#671=ORIENTED_EDGE('',*,*,#535,.T.);
#672=ORIENTED_EDGE('',*,*,#536,.T.);
#673=ORIENTED_EDGE('',*,*,#520,.F.);
#674=ORIENTED_EDGE('',*,*,#537,.T.);
#675=ORIENTED_EDGE('',*,*,#498,.F.);
#676=ORIENTED_EDGE('',*,*,#538,.F.);
#677=ORIENTED_EDGE('',*,*,#471,.T.);
#678=ORIENTED_EDGE('',*,*,#483,.T.);
#679=ORIENTED_EDGE('',*,*,#521,.F.);
#680=ORIENTED_EDGE('',*,*,#538,.T.);
#681=ORIENTED_EDGE('',*,*,#497,.F.);
#682=ORIENTED_EDGE('',*,*,#539,.F.);
#683=ORIENTED_EDGE('',*,*,#523,.F.);
#684=ORIENTED_EDGE('',*,*,#540,.T.);
#685=ORIENTED_EDGE('',*,*,#504,.F.);
#686=ORIENTED_EDGE('',*,*,#541,.F.);
#687=ORIENTED_EDGE('',*,*,#524,.F.);
#688=ORIENTED_EDGE('',*,*,#541,.T.);
#689=ORIENTED_EDGE('',*,*,#503,.F.);
#690=ORIENTED_EDGE('',*,*,#542,.F.);
#691=ORIENTED_EDGE('',*,*,#477,.T.);
#692=ORIENTED_EDGE('',*,*,#489,.T.);
#693=ORIENTED_EDGE('',*,*,#543,.F.);
#694=ORIENTED_EDGE('',*,*,#544,.T.);
#695=ORIENTED_EDGE('',*,*,#545,.F.);
#696=ORIENTED_EDGE('',*,*,#544,.F.);
#697=ORIENTED_EDGE('',*,*,#546,.F.);
#698=ORIENTED_EDGE('',*,*,#547,.T.);
#699=ORIENTED_EDGE('',*,*,#536,.F.);
#700=ORIENTED_EDGE('',*,*,#547,.F.);
#701=ORIENTED_EDGE('',*,*,#546,.T.);
#702=ORIENTED_EDGE('',*,*,#543,.T.);
#703=ORIENTED_EDGE('',*,*,#545,.T.);
#704=ORIENTED_EDGE('',*,*,#548,.F.);
#705=ORIENTED_EDGE('',*,*,#549,.T.);
#706=ORIENTED_EDGE('',*,*,#550,.F.);
#707=ORIENTED_EDGE('',*,*,#549,.F.);
#708=ORIENTED_EDGE('',*,*,#551,.F.);
#709=ORIENTED_EDGE('',*,*,#552,.T.);
#710=ORIENTED_EDGE('',*,*,#527,.F.);
#711=ORIENTED_EDGE('',*,*,#552,.F.);
#712=ORIENTED_EDGE('',*,*,#551,.T.);
#713=ORIENTED_EDGE('',*,*,#548,.T.);
#714=ORIENTED_EDGE('',*,*,#550,.T.);
#715=ORIENTED_EDGE('',*,*,#553,.F.);
#716=ORIENTED_EDGE('',*,*,#554,.T.);
#717=ORIENTED_EDGE('',*,*,#555,.F.);
#718=ORIENTED_EDGE('',*,*,#554,.F.);
#719=ORIENTED_EDGE('',*,*,#556,.F.);
#720=ORIENTED_EDGE('',*,*,#557,.T.);
#721=ORIENTED_EDGE('',*,*,#535,.F.);
#722=ORIENTED_EDGE('',*,*,#557,.F.);
#723=ORIENTED_EDGE('',*,*,#556,.T.);
#724=ORIENTED_EDGE('',*,*,#553,.T.);
#725=ORIENTED_EDGE('',*,*,#555,.T.);
#726=ORIENTED_EDGE('',*,*,#558,.F.);
#727=ORIENTED_EDGE('',*,*,#559,.T.);
#728=ORIENTED_EDGE('',*,*,#560,.F.);
#729=ORIENTED_EDGE('',*,*,#559,.F.);
#730=ORIENTED_EDGE('',*,*,#561,.F.);
#731=ORIENTED_EDGE('',*,*,#562,.T.);
#732=ORIENTED_EDGE('',*,*,#528,.F.);
#733=ORIENTED_EDGE('',*,*,#562,.F.);
#734=ORIENTED_EDGE('',*,*,#561,.T.);
#735=ORIENTED_EDGE('',*,*,#558,.T.);
#736=ORIENTED_EDGE('',*,*,#560,.T.);
#737=ORIENTED_EDGE('',*,*,#534,.F.);
#738=ORIENTED_EDGE('',*,*,#563,.T.);
#739=ORIENTED_EDGE('',*,*,#564,.T.);
#740=ORIENTED_EDGE('',*,*,#563,.F.);
#741=ORIENTED_EDGE('',*,*,#533,.F.);
#742=ORIENTED_EDGE('',*,*,#565,.T.);
#743=ORIENTED_EDGE('',*,*,#566,.T.);
#744=ORIENTED_EDGE('',*,*,#565,.F.);
#745=ORIENTED_EDGE('',*,*,#532,.F.);
#746=ORIENTED_EDGE('',*,*,#567,.T.);
#747=ORIENTED_EDGE('',*,*,#568,.T.);
#748=ORIENTED_EDGE('',*,*,#567,.F.);
#749=ORIENTED_EDGE('',*,*,#531,.F.);
#750=ORIENTED_EDGE('',*,*,#569,.T.);
#751=ORIENTED_EDGE('',*,*,#570,.T.);
#752=ORIENTED_EDGE('',*,*,#569,.F.);
#753=ORIENTED_EDGE('',*,*,#530,.F.);
#754=ORIENTED_EDGE('',*,*,#571,.T.);
#755=ORIENTED_EDGE('',*,*,#572,.T.);
#756=ORIENTED_EDGE('',*,*,#571,.F.);
#757=ORIENTED_EDGE('',*,*,#529,.F.);
#758=ORIENTED_EDGE('',*,*,#573,.T.);
#759=ORIENTED_EDGE('',*,*,#574,.T.);
#760=ORIENTED_EDGE('',*,*,#573,.F.);
#761=ORIENTED_EDGE('',*,*,#575,.T.);
#762=ORIENTED_EDGE('',*,*,#576,.T.);
#763=ORIENTED_EDGE('',*,*,#495,.F.);
#764=ORIENTED_EDGE('',*,*,#515,.F.);
#765=ORIENTED_EDGE('',*,*,#525,.F.);
#766=ORIENTED_EDGE('',*,*,#542,.T.);
#767=ORIENTED_EDGE('',*,*,#502,.F.);
#768=ORIENTED_EDGE('',*,*,#577,.F.);
#769=ORIENTED_EDGE('',*,*,#578,.T.);
#770=ORIENTED_EDGE('',*,*,#577,.T.);
#771=ORIENTED_EDGE('',*,*,#501,.F.);
#772=ORIENTED_EDGE('',*,*,#540,.F.);
#773=ORIENTED_EDGE('',*,*,#522,.F.);
#774=ORIENTED_EDGE('',*,*,#539,.T.);
#775=ORIENTED_EDGE('',*,*,#500,.F.);
#776=ORIENTED_EDGE('',*,*,#579,.F.);
#777=ORIENTED_EDGE('',*,*,#469,.T.);
#778=ORIENTED_EDGE('',*,*,#475,.T.);
#779=ORIENTED_EDGE('',*,*,#481,.T.);
#780=ORIENTED_EDGE('',*,*,#487,.T.);
#781=ORIENTED_EDGE('',*,*,#580,.T.);
#782=ORIENTED_EDGE('',*,*,#579,.T.);
#783=ORIENTED_EDGE('',*,*,#499,.F.);
#784=ORIENTED_EDGE('',*,*,#537,.F.);
#785=ORIENTED_EDGE('',*,*,#519,.F.);
#786=ORIENTED_EDGE('',*,*,#513,.T.);
#787=ORIENTED_EDGE('',*,*,#506,.F.);
#788=ORIENTED_EDGE('',*,*,#581,.F.);
#789=ORIENTED_EDGE('',*,*,#582,.T.);
#790=ORIENTED_EDGE('',*,*,#581,.T.);
#791=ORIENTED_EDGE('',*,*,#505,.F.);
#792=ORIENTED_EDGE('',*,*,#510,.F.);
#793=ORIENTED_EDGE('',*,*,#526,.F.);
#794=ORIENTED_EDGE('',*,*,#518,.T.);
#795=ORIENTED_EDGE('',*,*,#496,.F.);
#796=ORIENTED_EDGE('',*,*,#576,.F.);
#797=ORIENTED_EDGE('',*,*,#474,.T.);
#798=ORIENTED_EDGE('',*,*,#480,.T.);
#799=ORIENTED_EDGE('',*,*,#486,.T.);
#800=ORIENTED_EDGE('',*,*,#492,.T.);
#801=ORIENTED_EDGE('',*,*,#582,.F.);
#802=ORIENTED_EDGE('',*,*,#575,.F.);
#803=ORIENTED_EDGE('',*,*,#578,.F.);
#804=ORIENTED_EDGE('',*,*,#580,.F.);
#805=ORIENTED_EDGE('',*,*,#574,.F.);
#806=ORIENTED_EDGE('',*,*,#572,.F.);
#807=ORIENTED_EDGE('',*,*,#570,.F.);
#808=ORIENTED_EDGE('',*,*,#568,.F.);
#809=ORIENTED_EDGE('',*,*,#566,.F.);
#810=ORIENTED_EDGE('',*,*,#564,.F.);
#811=CYLINDRICAL_SURFACE('',#895,1.7);
#812=CYLINDRICAL_SURFACE('',#898,1.7);
#813=CYLINDRICAL_SURFACE('',#901,1.70000000000002);
#814=CYLINDRICAL_SURFACE('',#904,1.70000000000002);
#815=CYLINDRICAL_SURFACE('',#907,1.7);
#816=CYLINDRICAL_SURFACE('',#910,1.7);
#817=CYLINDRICAL_SURFACE('',#913,1.70000000000002);
#818=CYLINDRICAL_SURFACE('',#916,1.70000000000002);
#819=CYLINDRICAL_SURFACE('',#942,1.7);
#820=CYLINDRICAL_SURFACE('',#945,5.);
#821=CYLINDRICAL_SURFACE('',#949,1.7);
#822=CYLINDRICAL_SURFACE('',#952,5.);
#823=CYLINDRICAL_SURFACE('',#956,1.7);
#824=CYLINDRICAL_SURFACE('',#959,5.);
#825=CYLINDRICAL_SURFACE('',#963,1.7);
#826=CYLINDRICAL_SURFACE('',#966,5.);
#827=CYLINDRICAL_SURFACE('',#970,1.7);
#828=CYLINDRICAL_SURFACE('',#972,1.7);
#829=CYLINDRICAL_SURFACE('',#974,1.7);
#830=CYLINDRICAL_SURFACE('',#976,1.7);
#831=CYLINDRICAL_SURFACE('',#978,1.7);
#832=CYLINDRICAL_SURFACE('',#980,1.7);
#833=ADVANCED_FACE('',(#77),#811,.F.);
#834=ADVANCED_FACE('',(#78),#812,.F.);
#835=ADVANCED_FACE('',(#79),#813,.F.);
#836=ADVANCED_FACE('',(#80),#814,.F.);
#837=ADVANCED_FACE('',(#81),#815,.F.);
#838=ADVANCED_FACE('',(#82),#816,.F.);
#839=ADVANCED_FACE('',(#83),#817,.F.);
#840=ADVANCED_FACE('',(#84),#818,.F.);
#841=ADVANCED_FACE('',(#85),#51,.T.);
#842=ADVANCED_FACE('',(#86),#52,.T.);
#843=ADVANCED_FACE('',(#87),#53,.T.);
#844=ADVANCED_FACE('',(#88),#54,.T.);
#845=ADVANCED_FACE('',(#89),#55,.T.);
#846=ADVANCED_FACE('',(#90,#15,#16),#56,.T.);
#847=ADVANCED_FACE('',(#91,#17,#18),#57,.T.);
#848=ADVANCED_FACE('',(#92),#58,.T.);
#849=ADVANCED_FACE('',(#93,#19,#20,#21,#22,#23,#24,#25,#26,#27,#28),#59,
 .T.);
#850=ADVANCED_FACE('',(#94,#29,#30),#60,.T.);
#851=ADVANCED_FACE('',(#95),#61,.T.);
#852=ADVANCED_FACE('',(#96),#62,.T.);
#853=ADVANCED_FACE('',(#97,#31,#32),#63,.T.);
#854=ADVANCED_FACE('',(#98),#819,.F.);
#855=ADVANCED_FACE('',(#99),#820,.T.);
#856=ADVANCED_FACE('',(#100,#33),#64,.T.);
#857=ADVANCED_FACE('',(#101),#65,.T.);
#858=ADVANCED_FACE('',(#102),#821,.F.);
#859=ADVANCED_FACE('',(#103),#822,.T.);
#860=ADVANCED_FACE('',(#104,#34),#66,.T.);
#861=ADVANCED_FACE('',(#105),#67,.T.);
#862=ADVANCED_FACE('',(#106),#823,.F.);
#863=ADVANCED_FACE('',(#107),#824,.T.);
#864=ADVANCED_FACE('',(#108,#35),#68,.T.);
#865=ADVANCED_FACE('',(#109),#69,.T.);
#866=ADVANCED_FACE('',(#110),#825,.F.);
#867=ADVANCED_FACE('',(#111),#826,.T.);
#868=ADVANCED_FACE('',(#112,#36),#70,.T.);
#869=ADVANCED_FACE('',(#113),#71,.T.);
#870=ADVANCED_FACE('',(#114),#827,.F.);
#871=ADVANCED_FACE('',(#115),#828,.F.);
#872=ADVANCED_FACE('',(#116),#829,.F.);
#873=ADVANCED_FACE('',(#117),#830,.F.);
#874=ADVANCED_FACE('',(#118),#831,.F.);
#875=ADVANCED_FACE('',(#119),#832,.F.);
#876=ADVANCED_FACE('',(#120),#72,.T.);
#877=ADVANCED_FACE('',(#121,#37,#38,#39,#40),#73,.T.);
#878=ADVANCED_FACE('',(#122),#74,.T.);
#879=ADVANCED_FACE('',(#123,#41,#42,#43,#44),#75,.T.);
#880=ADVANCED_FACE('',(#124,#45,#46,#47,#48,#49,#50),#76,.F.);
#881=CLOSED_SHELL('',(#833,#834,#835,#836,#837,#838,#839,#840,#841,#842,
#843,#844,#845,#846,#847,#848,#849,#850,#851,#852,#853,#854,#855,#856,#857,
#858,#859,#860,#861,#862,#863,#864,#865,#866,#867,#868,#869,#870,#871,#872,
#873,#874,#875,#876,#877,#878,#879,#880));
#882=DERIVED_UNIT_ELEMENT(#884,1.);
#883=DERIVED_UNIT_ELEMENT(#1487,-3.);
#884=(
MASS_UNIT()
NAMED_UNIT(*)
SI_UNIT(.KILO.,.GRAM.)
);
#885=DERIVED_UNIT((#882,#883));
#886=MEASURE_REPRESENTATION_ITEM('density measure',
POSITIVE_RATIO_MEASURE(7850.),#885);
#887=PROPERTY_DEFINITION_REPRESENTATION(#892,#889);
#888=PROPERTY_DEFINITION_REPRESENTATION(#893,#890);
#889=REPRESENTATION('material name',(#891),#1484);
#890=REPRESENTATION('density',(#886),#1484);
#891=DESCRIPTIVE_REPRESENTATION_ITEM('Steel','Steel');
#892=PROPERTY_DEFINITION('material property','material name',#1494);
#893=PROPERTY_DEFINITION('material property','density of part',#1494);
#894=AXIS2_PLACEMENT_3D('',#1243,#987,#988);
#895=AXIS2_PLACEMENT_3D('',#1244,#989,#990);
#896=AXIS2_PLACEMENT_3D('',#1246,#991,#992);
#897=AXIS2_PLACEMENT_3D('',#1249,#994,#995);
#898=AXIS2_PLACEMENT_3D('',#1250,#996,#997);
#899=AXIS2_PLACEMENT_3D('',#1252,#998,#999);
#900=AXIS2_PLACEMENT_3D('',#1255,#1001,#1002);
#901=AXIS2_PLACEMENT_3D('',#1256,#1003,#1004);
#902=AXIS2_PLACEMENT_3D('',#1258,#1005,#1006);
#903=AXIS2_PLACEMENT_3D('',#1261,#1008,#1009);
#904=AXIS2_PLACEMENT_3D('',#1262,#1010,#1011);
#905=AXIS2_PLACEMENT_3D('',#1264,#1012,#1013);
#906=AXIS2_PLACEMENT_3D('',#1267,#1015,#1016);
#907=AXIS2_PLACEMENT_3D('',#1268,#1017,#1018);
#908=AXIS2_PLACEMENT_3D('',#1270,#1019,#1020);
#909=AXIS2_PLACEMENT_3D('',#1273,#1022,#1023);
#910=AXIS2_PLACEMENT_3D('',#1274,#1024,#1025);
#911=AXIS2_PLACEMENT_3D('',#1276,#1026,#1027);
#912=AXIS2_PLACEMENT_3D('',#1279,#1029,#1030);
#913=AXIS2_PLACEMENT_3D('',#1280,#1031,#1032);
#914=AXIS2_PLACEMENT_3D('',#1282,#1033,#1034);
#915=AXIS2_PLACEMENT_3D('',#1285,#1036,#1037);
#916=AXIS2_PLACEMENT_3D('',#1286,#1038,#1039);
#917=AXIS2_PLACEMENT_3D('',#1288,#1040,#1041);
#918=AXIS2_PLACEMENT_3D('',#1291,#1043,#1044);
#919=AXIS2_PLACEMENT_3D('',#1292,#1045,#1046);
#920=AXIS2_PLACEMENT_3D('',#1301,#1051,#1052);
#921=AXIS2_PLACEMENT_3D('',#1310,#1057,#1058);
#922=AXIS2_PLACEMENT_3D('',#1319,#1063,#1064);
#923=AXIS2_PLACEMENT_3D('',#1328,#1069,#1070);
#924=AXIS2_PLACEMENT_3D('',#1334,#1074,#1075);
#925=AXIS2_PLACEMENT_3D('',#1338,#1078,#1079);
#926=AXIS2_PLACEMENT_3D('',#1344,#1083,#1084);
#927=AXIS2_PLACEMENT_3D('',#1348,#1087,#1088);
#928=AXIS2_PLACEMENT_3D('',#1364,#1097,#1098);
#929=AXIS2_PLACEMENT_3D('',#1366,#1099,#1100);
#930=AXIS2_PLACEMENT_3D('',#1368,#1101,#1102);
#931=AXIS2_PLACEMENT_3D('',#1370,#1103,#1104);
#932=AXIS2_PLACEMENT_3D('',#1372,#1105,#1106);
#933=AXIS2_PLACEMENT_3D('',#1374,#1107,#1108);
#934=AXIS2_PLACEMENT_3D('',#1376,#1109,#1110);
#935=AXIS2_PLACEMENT_3D('',#1378,#1111,#1112);
#936=AXIS2_PLACEMENT_3D('',#1380,#1113,#1114);
#937=AXIS2_PLACEMENT_3D('',#1382,#1115,#1116);
#938=AXIS2_PLACEMENT_3D('',#1383,#1117,#1118);
#939=AXIS2_PLACEMENT_3D('',#1386,#1121,#1122);
#940=AXIS2_PLACEMENT_3D('',#1388,#1124,#1125);
#941=AXIS2_PLACEMENT_3D('',#1391,#1128,#1129);
#942=AXIS2_PLACEMENT_3D('',#1393,#1131,#1132);
#943=AXIS2_PLACEMENT_3D('',#1395,#1133,#1134);
#944=AXIS2_PLACEMENT_3D('',#1398,#1136,#1137);
#945=AXIS2_PLACEMENT_3D('',#1399,#1138,#1139);
#946=AXIS2_PLACEMENT_3D('',#1401,#1140,#1141);
#947=AXIS2_PLACEMENT_3D('',#1403,#1143,#1144);
#948=AXIS2_PLACEMENT_3D('',#1404,#1145,#1146);
#949=AXIS2_PLACEMENT_3D('',#1405,#1147,#1148);
#950=AXIS2_PLACEMENT_3D('',#1407,#1149,#1150);
#951=AXIS2_PLACEMENT_3D('',#1410,#1152,#1153);
#952=AXIS2_PLACEMENT_3D('',#1411,#1154,#1155);
#953=AXIS2_PLACEMENT_3D('',#1413,#1156,#1157);
#954=AXIS2_PLACEMENT_3D('',#1415,#1159,#1160);
#955=AXIS2_PLACEMENT_3D('',#1416,#1161,#1162);
#956=AXIS2_PLACEMENT_3D('',#1417,#1163,#1164);
#957=AXIS2_PLACEMENT_3D('',#1419,#1165,#1166);
#958=AXIS2_PLACEMENT_3D('',#1422,#1168,#1169);
#959=AXIS2_PLACEMENT_3D('',#1423,#1170,#1171);
#960=AXIS2_PLACEMENT_3D('',#1425,#1172,#1173);
#961=AXIS2_PLACEMENT_3D('',#1427,#1175,#1176);
#962=AXIS2_PLACEMENT_3D('',#1428,#1177,#1178);
#963=AXIS2_PLACEMENT_3D('',#1429,#1179,#1180);
#964=AXIS2_PLACEMENT_3D('',#1431,#1181,#1182);
#965=AXIS2_PLACEMENT_3D('',#1434,#1184,#1185);
#966=AXIS2_PLACEMENT_3D('',#1435,#1186,#1187);
#967=AXIS2_PLACEMENT_3D('',#1437,#1188,#1189);
#968=AXIS2_PLACEMENT_3D('',#1439,#1191,#1192);
#969=AXIS2_PLACEMENT_3D('',#1440,#1193,#1194);
#970=AXIS2_PLACEMENT_3D('',#1441,#1195,#1196);
#971=AXIS2_PLACEMENT_3D('',#1444,#1198,#1199);
#972=AXIS2_PLACEMENT_3D('',#1445,#1200,#1201);
#973=AXIS2_PLACEMENT_3D('',#1448,#1203,#1204);
#974=AXIS2_PLACEMENT_3D('',#1449,#1205,#1206);
#975=AXIS2_PLACEMENT_3D('',#1452,#1208,#1209);
#976=AXIS2_PLACEMENT_3D('',#1453,#1210,#1211);
#977=AXIS2_PLACEMENT_3D('',#1456,#1213,#1214);
#978=AXIS2_PLACEMENT_3D('',#1457,#1215,#1216);
#979=AXIS2_PLACEMENT_3D('',#1460,#1218,#1219);
#980=AXIS2_PLACEMENT_3D('',#1461,#1220,#1221);
#981=AXIS2_PLACEMENT_3D('',#1464,#1223,#1224);
#982=AXIS2_PLACEMENT_3D('',#1465,#1225,#1226);
#983=AXIS2_PLACEMENT_3D('',#1471,#1230,#1231);
#984=AXIS2_PLACEMENT_3D('',#1475,#1234,#1235);
#985=AXIS2_PLACEMENT_3D('',#1479,#1238,#1239);
#986=AXIS2_PLACEMENT_3D('',#1481,#1241,#1242);
#987=DIRECTION('axis',(0.,0.,1.));
#988=DIRECTION('refdir',(1.,0.,0.));
#989=DIRECTION('center_axis',(-1.,0.,0.));
#990=DIRECTION('ref_axis',(0.,1.,0.));
#991=DIRECTION('center_axis',(-1.,0.,0.));
#992=DIRECTION('ref_axis',(0.,1.,0.));
#993=DIRECTION('',(-1.,0.,0.));
#994=DIRECTION('center_axis',(1.,0.,0.));
#995=DIRECTION('ref_axis',(0.,1.,0.));
#996=DIRECTION('center_axis',(-1.,0.,0.));
#997=DIRECTION('ref_axis',(0.,1.,0.));
#998=DIRECTION('center_axis',(-1.,0.,0.));
#999=DIRECTION('ref_axis',(0.,1.,0.));
#1000=DIRECTION('',(-1.,0.,0.));
#1001=DIRECTION('center_axis',(1.,0.,0.));
#1002=DIRECTION('ref_axis',(0.,1.,0.));
#1003=DIRECTION('center_axis',(-1.,0.,0.));
#1004=DIRECTION('ref_axis',(0.,1.,0.));
#1005=DIRECTION('center_axis',(-1.,0.,0.));
#1006=DIRECTION('ref_axis',(0.,1.,0.));
#1007=DIRECTION('',(-1.,0.,0.));
#1008=DIRECTION('center_axis',(1.,0.,0.));
#1009=DIRECTION('ref_axis',(0.,1.,0.));
#1010=DIRECTION('center_axis',(-1.,0.,0.));
#1011=DIRECTION('ref_axis',(0.,1.,0.));
#1012=DIRECTION('center_axis',(-1.,0.,0.));
#1013=DIRECTION('ref_axis',(0.,1.,0.));
#1014=DIRECTION('',(-1.,0.,0.));
#1015=DIRECTION('center_axis',(1.,0.,0.));
#1016=DIRECTION('ref_axis',(0.,1.,0.));
#1017=DIRECTION('center_axis',(-1.,0.,0.));
#1018=DIRECTION('ref_axis',(0.,1.,0.));
#1019=DIRECTION('center_axis',(-1.,0.,0.));
#1020=DIRECTION('ref_axis',(0.,1.,0.));
#1021=DIRECTION('',(-1.,0.,0.));
#1022=DIRECTION('center_axis',(1.,0.,0.));
#1023=DIRECTION('ref_axis',(0.,1.,0.));
#1024=DIRECTION('center_axis',(-1.,0.,0.));
#1025=DIRECTION('ref_axis',(0.,1.,0.));
#1026=DIRECTION('center_axis',(-1.,0.,0.));
#1027=DIRECTION('ref_axis',(0.,1.,0.));
#1028=DIRECTION('',(-1.,0.,0.));
#1029=DIRECTION('center_axis',(1.,0.,0.));
#1030=DIRECTION('ref_axis',(0.,1.,0.));
#1031=DIRECTION('center_axis',(-1.,0.,0.));
#1032=DIRECTION('ref_axis',(0.,1.,0.));
#1033=DIRECTION('center_axis',(-1.,0.,0.));
#1034=DIRECTION('ref_axis',(0.,1.,0.));
#1035=DIRECTION('',(-1.,0.,0.));
#1036=DIRECTION('center_axis',(1.,0.,0.));
#1037=DIRECTION('ref_axis',(0.,1.,0.));
#1038=DIRECTION('center_axis',(-1.,0.,0.));
#1039=DIRECTION('ref_axis',(0.,1.,0.));
#1040=DIRECTION('center_axis',(-1.,0.,0.));
#1041=DIRECTION('ref_axis',(0.,1.,0.));
#1042=DIRECTION('',(-1.,0.,0.));
#1043=DIRECTION('center_axis',(1.,0.,0.));
#1044=DIRECTION('ref_axis',(0.,1.,0.));
#1045=DIRECTION('center_axis',(0.,0.,1.));
#1046=DIRECTION('ref_axis',(1.,0.,0.));
#1047=DIRECTION('',(1.,0.,0.));
#1048=DIRECTION('',(0.,1.,0.));
#1049=DIRECTION('',(-1.,0.,0.));
#1050=DIRECTION('',(0.,-1.,0.));
#1051=DIRECTION('center_axis',(0.,0.,1.));
#1052=DIRECTION('ref_axis',(1.,0.,0.));
#1053=DIRECTION('',(-1.,0.,0.));
#1054=DIRECTION('',(0.,-1.,0.));
#1055=DIRECTION('',(1.,0.,0.));
#1056=DIRECTION('',(0.,1.,0.));
#1057=DIRECTION('center_axis',(0.,0.,1.));
#1058=DIRECTION('ref_axis',(1.,0.,0.));
#1059=DIRECTION('',(0.,1.,0.));
#1060=DIRECTION('',(-1.,0.,0.));
#1061=DIRECTION('',(0.,-1.,0.));
#1062=DIRECTION('',(1.,0.,0.));
#1063=DIRECTION('center_axis',(0.,0.,1.));
#1064=DIRECTION('ref_axis',(1.,0.,0.));
#1065=DIRECTION('',(0.,-1.,0.));
#1066=DIRECTION('',(1.,0.,0.));
#1067=DIRECTION('',(0.,1.,0.));
#1068=DIRECTION('',(-1.,0.,0.));
#1069=DIRECTION('center_axis',(0.,1.,0.));
#1070=DIRECTION('ref_axis',(-1.,0.,0.));
#1071=DIRECTION('',(1.,0.,0.));
#1072=DIRECTION('',(0.,0.,1.));
#1073=DIRECTION('',(0.,0.,1.));
#1074=DIRECTION('center_axis',(1.,0.,0.));
#1075=DIRECTION('ref_axis',(0.,1.,0.));
#1076=DIRECTION('',(0.,-1.,0.));
#1077=DIRECTION('',(0.,0.,1.));
#1078=DIRECTION('center_axis',(1.,0.,0.));
#1079=DIRECTION('ref_axis',(0.,1.,0.));
#1080=DIRECTION('',(0.,-1.,0.));
#1081=DIRECTION('',(0.,0.,1.));
#1082=DIRECTION('',(0.,0.,1.));
#1083=DIRECTION('center_axis',(0.,-1.,0.));
#1084=DIRECTION('ref_axis',(1.,0.,0.));
#1085=DIRECTION('',(-1.,0.,0.));
#1086=DIRECTION('',(0.,0.,1.));
#1087=DIRECTION('center_axis',(0.,0.,1.));
#1088=DIRECTION('ref_axis',(1.,0.,0.));
#1089=DIRECTION('',(1.,0.,0.));
#1090=DIRECTION('',(0.,1.,0.));
#1091=DIRECTION('',(1.,0.,0.));
#1092=DIRECTION('',(0.,1.,0.));
#1093=DIRECTION('',(-1.,0.,0.));
#1094=DIRECTION('',(0.,1.,0.));
#1095=DIRECTION('',(-1.,0.,0.));
#1096=DIRECTION('',(0.,-1.,0.));
#1097=DIRECTION('center_axis',(0.,0.,-1.));
#1098=DIRECTION('ref_axis',(-1.,0.,0.));
#1099=DIRECTION('center_axis',(0.,0.,-1.));
#1100=DIRECTION('ref_axis',(-1.,0.,0.));
#1101=DIRECTION('center_axis',(0.,0.,-1.));
#1102=DIRECTION('ref_axis',(1.,0.,0.));
#1103=DIRECTION('center_axis',(0.,0.,-1.));
#1104=DIRECTION('ref_axis',(1.,0.,0.));
#1105=DIRECTION('center_axis',(0.,0.,-1.));
#1106=DIRECTION('ref_axis',(1.,0.,0.));
#1107=DIRECTION('center_axis',(0.,0.,-1.));
#1108=DIRECTION('ref_axis',(1.,0.,0.));
#1109=DIRECTION('center_axis',(0.,0.,-1.));
#1110=DIRECTION('ref_axis',(1.,0.,0.));
#1111=DIRECTION('center_axis',(0.,0.,-1.));
#1112=DIRECTION('ref_axis',(1.,0.,0.));
#1113=DIRECTION('center_axis',(0.,0.,-1.));
#1114=DIRECTION('ref_axis',(-1.,0.,0.));
#1115=DIRECTION('center_axis',(0.,0.,-1.));
#1116=DIRECTION('ref_axis',(-1.,0.,0.));
#1117=DIRECTION('center_axis',(-1.,0.,0.));
#1118=DIRECTION('ref_axis',(0.,-1.,0.));
#1119=DIRECTION('',(0.,0.,1.));
#1120=DIRECTION('',(0.,0.,1.));
#1121=DIRECTION('center_axis',(0.,1.,0.));
#1122=DIRECTION('ref_axis',(-1.,0.,0.));
#1123=DIRECTION('',(0.,0.,1.));
#1124=DIRECTION('center_axis',(0.,-1.,0.));
#1125=DIRECTION('ref_axis',(1.,0.,0.));
#1126=DIRECTION('',(0.,0.,1.));
#1127=DIRECTION('',(0.,0.,1.));
#1128=DIRECTION('center_axis',(-1.,0.,0.));
#1129=DIRECTION('ref_axis',(0.,-1.,0.));
#1130=DIRECTION('',(0.,0.,1.));
#1131=DIRECTION('center_axis',(0.,0.,1.));
#1132=DIRECTION('ref_axis',(-1.,0.,0.));
#1133=DIRECTION('center_axis',(0.,0.,-1.));
#1134=DIRECTION('ref_axis',(-1.,0.,0.));
#1135=DIRECTION('',(0.,0.,-1.));
#1136=DIRECTION('center_axis',(0.,0.,1.));
#1137=DIRECTION('ref_axis',(-1.,0.,0.));
#1138=DIRECTION('center_axis',(0.,0.,1.));
#1139=DIRECTION('ref_axis',(-1.,0.,0.));
#1140=DIRECTION('center_axis',(0.,0.,1.));
#1141=DIRECTION('ref_axis',(-1.,0.,0.));
#1142=DIRECTION('',(0.,0.,-1.));
#1143=DIRECTION('center_axis',(0.,0.,1.));
#1144=DIRECTION('ref_axis',(-1.,0.,0.));
#1145=DIRECTION('center_axis',(0.,0.,1.));
#1146=DIRECTION('ref_axis',(1.,0.,0.));
#1147=DIRECTION('center_axis',(0.,0.,1.));
#1148=DIRECTION('ref_axis',(-1.,0.,0.));
#1149=DIRECTION('center_axis',(0.,0.,-1.));
#1150=DIRECTION('ref_axis',(-1.,0.,0.));
#1151=DIRECTION('',(0.,0.,-1.));
#1152=DIRECTION('center_axis',(0.,0.,1.));
#1153=DIRECTION('ref_axis',(-1.,0.,0.));
#1154=DIRECTION('center_axis',(0.,0.,1.));
#1155=DIRECTION('ref_axis',(-1.,0.,0.));
#1156=DIRECTION('center_axis',(0.,0.,1.));
#1157=DIRECTION('ref_axis',(-1.,0.,0.));
#1158=DIRECTION('',(0.,0.,-1.));
#1159=DIRECTION('center_axis',(0.,0.,1.));
#1160=DIRECTION('ref_axis',(-1.,0.,0.));
#1161=DIRECTION('center_axis',(0.,0.,1.));
#1162=DIRECTION('ref_axis',(1.,0.,0.));
#1163=DIRECTION('center_axis',(0.,0.,1.));
#1164=DIRECTION('ref_axis',(-1.,0.,0.));
#1165=DIRECTION('center_axis',(0.,0.,-1.));
#1166=DIRECTION('ref_axis',(-1.,0.,0.));
#1167=DIRECTION('',(0.,0.,-1.));
#1168=DIRECTION('center_axis',(0.,0.,1.));
#1169=DIRECTION('ref_axis',(-1.,0.,0.));
#1170=DIRECTION('center_axis',(0.,0.,1.));
#1171=DIRECTION('ref_axis',(-1.,0.,0.));
#1172=DIRECTION('center_axis',(0.,0.,1.));
#1173=DIRECTION('ref_axis',(-1.,0.,0.));
#1174=DIRECTION('',(0.,0.,-1.));
#1175=DIRECTION('center_axis',(0.,0.,1.));
#1176=DIRECTION('ref_axis',(-1.,0.,0.));
#1177=DIRECTION('center_axis',(0.,0.,1.));
#1178=DIRECTION('ref_axis',(1.,0.,0.));
#1179=DIRECTION('center_axis',(0.,0.,1.));
#1180=DIRECTION('ref_axis',(-1.,0.,0.));
#1181=DIRECTION('center_axis',(0.,0.,-1.));
#1182=DIRECTION('ref_axis',(-1.,0.,0.));
#1183=DIRECTION('',(0.,0.,-1.));
#1184=DIRECTION('center_axis',(0.,0.,1.));
#1185=DIRECTION('ref_axis',(-1.,0.,0.));
#1186=DIRECTION('center_axis',(0.,0.,1.));
#1187=DIRECTION('ref_axis',(-1.,0.,0.));
#1188=DIRECTION('center_axis',(0.,0.,1.));
#1189=DIRECTION('ref_axis',(-1.,0.,0.));
#1190=DIRECTION('',(0.,0.,-1.));
#1191=DIRECTION('center_axis',(0.,0.,1.));
#1192=DIRECTION('ref_axis',(-1.,0.,0.));
#1193=DIRECTION('center_axis',(0.,0.,1.));
#1194=DIRECTION('ref_axis',(1.,0.,0.));
#1195=DIRECTION('center_axis',(0.,0.,1.));
#1196=DIRECTION('ref_axis',(1.,0.,0.));
#1197=DIRECTION('',(0.,0.,-1.));
#1198=DIRECTION('center_axis',(0.,0.,-1.));
#1199=DIRECTION('ref_axis',(1.,0.,0.));
#1200=DIRECTION('center_axis',(0.,0.,1.));
#1201=DIRECTION('ref_axis',(1.,0.,0.));
#1202=DIRECTION('',(0.,0.,-1.));
#1203=DIRECTION('center_axis',(0.,0.,-1.));
#1204=DIRECTION('ref_axis',(1.,0.,0.));
#1205=DIRECTION('center_axis',(0.,0.,1.));
#1206=DIRECTION('ref_axis',(1.,0.,0.));
#1207=DIRECTION('',(0.,0.,-1.));
#1208=DIRECTION('center_axis',(0.,0.,-1.));
#1209=DIRECTION('ref_axis',(1.,0.,0.));
#1210=DIRECTION('center_axis',(0.,0.,1.));
#1211=DIRECTION('ref_axis',(1.,0.,0.));
#1212=DIRECTION('',(0.,0.,-1.));
#1213=DIRECTION('center_axis',(0.,0.,-1.));
#1214=DIRECTION('ref_axis',(1.,0.,0.));
#1215=DIRECTION('center_axis',(0.,0.,1.));
#1216=DIRECTION('ref_axis',(1.,0.,0.));
#1217=DIRECTION('',(0.,0.,-1.));
#1218=DIRECTION('center_axis',(0.,0.,-1.));
#1219=DIRECTION('ref_axis',(1.,0.,0.));
#1220=DIRECTION('center_axis',(0.,0.,1.));
#1221=DIRECTION('ref_axis',(1.,0.,0.));
#1222=DIRECTION('',(0.,0.,-1.));
#1223=DIRECTION('center_axis',(0.,0.,-1.));
#1224=DIRECTION('ref_axis',(1.,0.,0.));
#1225=DIRECTION('center_axis',(0.,1.,0.));
#1226=DIRECTION('ref_axis',(-1.,0.,0.));
#1227=DIRECTION('',(-1.,0.,0.));
#1228=DIRECTION('',(0.,0.,1.));
#1229=DIRECTION('',(0.,0.,1.));
#1230=DIRECTION('center_axis',(1.,0.,0.));
#1231=DIRECTION('ref_axis',(0.,1.,0.));
#1232=DIRECTION('',(0.,1.,0.));
#1233=DIRECTION('',(0.,0.,1.));
#1234=DIRECTION('center_axis',(0.,-1.,0.));
#1235=DIRECTION('ref_axis',(1.,0.,0.));
#1236=DIRECTION('',(1.,0.,0.));
#1237=DIRECTION('',(0.,0.,1.));
#1238=DIRECTION('center_axis',(-1.,0.,0.));
#1239=DIRECTION('ref_axis',(0.,-1.,0.));
#1240=DIRECTION('',(0.,-1.,0.));
#1241=DIRECTION('center_axis',(0.,0.,1.));
#1242=DIRECTION('ref_axis',(1.,0.,0.));
#1243=CARTESIAN_POINT('',(0.,0.,0.));
#1244=CARTESIAN_POINT('Origin',(140.,7.,8.));
#1245=CARTESIAN_POINT('',(140.,5.3,8.));
#1246=CARTESIAN_POINT('Origin',(140.,7.,8.));
#1247=CARTESIAN_POINT('',(135.,5.3,8.));
#1248=CARTESIAN_POINT('',(140.,5.3,8.));
#1249=CARTESIAN_POINT('Origin',(135.,7.,8.));
#1250=CARTESIAN_POINT('Origin',(140.,7.,8.));
#1251=CARTESIAN_POINT('',(5.,5.3,8.));
#1252=CARTESIAN_POINT('Origin',(5.,7.,8.));
#1253=CARTESIAN_POINT('',(0.,5.3,8.));
#1254=CARTESIAN_POINT('',(140.,5.3,8.));
#1255=CARTESIAN_POINT('Origin',(0.,7.,8.));
#1256=CARTESIAN_POINT('Origin',(140.,173.,25.5));
#1257=CARTESIAN_POINT('',(140.,171.3,25.5));
#1258=CARTESIAN_POINT('Origin',(140.,173.,25.5));
#1259=CARTESIAN_POINT('',(135.,171.3,25.5));
#1260=CARTESIAN_POINT('',(140.,171.3,25.5));
#1261=CARTESIAN_POINT('Origin',(135.,173.,25.5));
#1262=CARTESIAN_POINT('Origin',(140.,173.,25.5));
#1263=CARTESIAN_POINT('',(5.,171.3,25.5));
#1264=CARTESIAN_POINT('Origin',(5.,173.,25.5));
#1265=CARTESIAN_POINT('',(0.,171.3,25.5));
#1266=CARTESIAN_POINT('',(140.,171.3,25.5));
#1267=CARTESIAN_POINT('Origin',(0.,173.,25.5));
#1268=CARTESIAN_POINT('Origin',(140.,7.,25.5));
#1269=CARTESIAN_POINT('',(140.,5.3,25.5));
#1270=CARTESIAN_POINT('Origin',(140.,7.,25.5));
#1271=CARTESIAN_POINT('',(135.,5.3,25.5));
#1272=CARTESIAN_POINT('',(140.,5.3,25.5));
#1273=CARTESIAN_POINT('Origin',(135.,7.,25.5));
#1274=CARTESIAN_POINT('Origin',(140.,7.,25.5));
#1275=CARTESIAN_POINT('',(5.,5.3,25.5));
#1276=CARTESIAN_POINT('Origin',(5.,7.,25.5));
#1277=CARTESIAN_POINT('',(0.,5.3,25.5));
#1278=CARTESIAN_POINT('',(140.,5.3,25.5));
#1279=CARTESIAN_POINT('Origin',(0.,7.,25.5));
#1280=CARTESIAN_POINT('Origin',(140.,173.,8.));
#1281=CARTESIAN_POINT('',(140.,171.3,8.));
#1282=CARTESIAN_POINT('Origin',(140.,173.,8.));
#1283=CARTESIAN_POINT('',(135.,171.3,8.));
#1284=CARTESIAN_POINT('',(140.,171.3,8.));
#1285=CARTESIAN_POINT('Origin',(135.,173.,8.));
#1286=CARTESIAN_POINT('Origin',(140.,173.,8.));
#1287=CARTESIAN_POINT('',(5.,171.3,8.));
#1288=CARTESIAN_POINT('Origin',(5.,173.,8.));
#1289=CARTESIAN_POINT('',(0.,171.3,8.));
#1290=CARTESIAN_POINT('',(140.,171.3,8.));
#1291=CARTESIAN_POINT('Origin',(0.,173.,8.));
#1292=CARTESIAN_POINT('Origin',(2.5,165.,32.));
#1293=CARTESIAN_POINT('',(0.,150.,32.));
#1294=CARTESIAN_POINT('',(5.,150.,32.));
#1295=CARTESIAN_POINT('',(5.,150.,32.));
#1296=CARTESIAN_POINT('',(5.,180.,32.));
#1297=CARTESIAN_POINT('',(5.,180.,32.));
#1298=CARTESIAN_POINT('',(0.,180.,32.));
#1299=CARTESIAN_POINT('',(0.,180.,32.));
#1300=CARTESIAN_POINT('',(0.,150.,32.));
#1301=CARTESIAN_POINT('Origin',(137.5,15.,32.));
#1302=CARTESIAN_POINT('',(140.,30.,32.));
#1303=CARTESIAN_POINT('',(135.,30.,32.));
#1304=CARTESIAN_POINT('',(135.,30.,32.));
#1305=CARTESIAN_POINT('',(135.,0.,32.));
#1306=CARTESIAN_POINT('',(135.,0.,32.));
#1307=CARTESIAN_POINT('',(140.,0.,32.));
#1308=CARTESIAN_POINT('',(140.,0.,32.));
#1309=CARTESIAN_POINT('',(140.,30.,32.));
#1310=CARTESIAN_POINT('Origin',(137.5,165.,32.));
#1311=CARTESIAN_POINT('',(140.,150.,32.));
#1312=CARTESIAN_POINT('',(140.,180.,32.));
#1313=CARTESIAN_POINT('',(140.,150.,32.));
#1314=CARTESIAN_POINT('',(135.,180.,32.));
#1315=CARTESIAN_POINT('',(140.,180.,32.));
#1316=CARTESIAN_POINT('',(135.,150.,32.));
#1317=CARTESIAN_POINT('',(135.,180.,32.));
#1318=CARTESIAN_POINT('',(135.,150.,32.));
#1319=CARTESIAN_POINT('Origin',(2.5,15.,32.));
#1320=CARTESIAN_POINT('',(0.,30.,32.));
#1321=CARTESIAN_POINT('',(0.,0.,32.));
#1322=CARTESIAN_POINT('',(0.,30.,32.));
#1323=CARTESIAN_POINT('',(5.,0.,32.));
#1324=CARTESIAN_POINT('',(0.,0.,32.));
#1325=CARTESIAN_POINT('',(5.,30.,32.));
#1326=CARTESIAN_POINT('',(5.,0.,32.));
#1327=CARTESIAN_POINT('',(5.,30.,32.));
#1328=CARTESIAN_POINT('Origin',(5.,30.,5.));
#1329=CARTESIAN_POINT('',(0.,30.,5.));
#1330=CARTESIAN_POINT('',(5.,30.,5.));
#1331=CARTESIAN_POINT('',(37.5,30.,5.));
#1332=CARTESIAN_POINT('',(0.,30.,5.));
#1333=CARTESIAN_POINT('',(5.,30.,5.));
#1334=CARTESIAN_POINT('Origin',(5.,0.,5.));
#1335=CARTESIAN_POINT('',(5.,0.,5.));
#1336=CARTESIAN_POINT('',(5.,45.,5.));
#1337=CARTESIAN_POINT('',(5.,0.,5.));
#1338=CARTESIAN_POINT('Origin',(5.,150.,5.));
#1339=CARTESIAN_POINT('',(5.,180.,5.));
#1340=CARTESIAN_POINT('',(5.,150.,5.));
#1341=CARTESIAN_POINT('',(5.,120.,5.));
#1342=CARTESIAN_POINT('',(5.,180.,5.));
#1343=CARTESIAN_POINT('',(5.,150.,5.));
#1344=CARTESIAN_POINT('Origin',(0.,150.,5.));
#1345=CARTESIAN_POINT('',(0.,150.,5.));
#1346=CARTESIAN_POINT('',(35.,150.,5.));
#1347=CARTESIAN_POINT('',(0.,150.,5.));
#1348=CARTESIAN_POINT('Origin',(70.,90.,5.));
#1349=CARTESIAN_POINT('',(135.,0.,5.));
#1350=CARTESIAN_POINT('',(0.,0.,5.));
#1351=CARTESIAN_POINT('',(135.,30.,5.));
#1352=CARTESIAN_POINT('',(135.,60.,5.));
#1353=CARTESIAN_POINT('',(140.,30.,5.));
#1354=CARTESIAN_POINT('',(105.,30.,5.));
#1355=CARTESIAN_POINT('',(140.,150.,5.));
#1356=CARTESIAN_POINT('',(140.,0.,5.));
#1357=CARTESIAN_POINT('',(135.,150.,5.));
#1358=CARTESIAN_POINT('',(102.5,150.,5.));
#1359=CARTESIAN_POINT('',(135.,180.,5.));
#1360=CARTESIAN_POINT('',(135.,135.,5.));
#1361=CARTESIAN_POINT('',(140.,180.,5.));
#1362=CARTESIAN_POINT('',(0.,180.,5.));
#1363=CARTESIAN_POINT('',(15.,70.,5.));
#1364=CARTESIAN_POINT('Origin',(10.,70.,5.));
#1365=CARTESIAN_POINT('',(15.,110.,5.));
#1366=CARTESIAN_POINT('Origin',(10.,110.,5.));
#1367=CARTESIAN_POINT('',(85.3,167.,5.));
#1368=CARTESIAN_POINT('Origin',(87.,167.,5.));
#1369=CARTESIAN_POINT('',(48.3,130.,5.));
#1370=CARTESIAN_POINT('Origin',(50.,130.,5.));
#1371=CARTESIAN_POINT('',(110.3,40.,5.));
#1372=CARTESIAN_POINT('Origin',(112.,40.,5.));
#1373=CARTESIAN_POINT('',(48.3,167.,5.));
#1374=CARTESIAN_POINT('Origin',(50.,167.,5.));
#1375=CARTESIAN_POINT('',(85.3,130.,5.));
#1376=CARTESIAN_POINT('Origin',(87.,130.,5.));
#1377=CARTESIAN_POINT('',(33.3,40.,5.));
#1378=CARTESIAN_POINT('Origin',(35.,40.,5.));
#1379=CARTESIAN_POINT('',(135.,70.,5.));
#1380=CARTESIAN_POINT('Origin',(130.,70.,5.));
#1381=CARTESIAN_POINT('',(135.,110.,5.));
#1382=CARTESIAN_POINT('Origin',(130.,110.,5.));
#1383=CARTESIAN_POINT('Origin',(135.,30.,5.));
#1384=CARTESIAN_POINT('',(135.,0.,5.));
#1385=CARTESIAN_POINT('',(135.,30.,5.));
#1386=CARTESIAN_POINT('Origin',(140.,30.,5.));
#1387=CARTESIAN_POINT('',(140.,30.,5.));
#1388=CARTESIAN_POINT('Origin',(135.,150.,5.));
#1389=CARTESIAN_POINT('',(140.,150.,5.));
#1390=CARTESIAN_POINT('',(135.,150.,5.));
#1391=CARTESIAN_POINT('Origin',(135.,180.,5.));
#1392=CARTESIAN_POINT('',(135.,180.,5.));
#1393=CARTESIAN_POINT('Origin',(130.,110.,5.));
#1394=CARTESIAN_POINT('',(131.7,110.,45.));
#1395=CARTESIAN_POINT('Origin',(130.,110.,45.));
#1396=CARTESIAN_POINT('',(131.7,110.,5.));
#1397=CARTESIAN_POINT('',(131.7,110.,5.));
#1398=CARTESIAN_POINT('Origin',(130.,110.,5.));
#1399=CARTESIAN_POINT('Origin',(130.,110.,5.));
#1400=CARTESIAN_POINT('',(135.,110.,45.));
#1401=CARTESIAN_POINT('Origin',(130.,110.,45.));
#1402=CARTESIAN_POINT('',(135.,110.,5.));
#1403=CARTESIAN_POINT('Origin',(130.,110.,45.));
#1404=CARTESIAN_POINT('Origin',(70.,90.,5.));
#1405=CARTESIAN_POINT('Origin',(10.,70.,5.));
#1406=CARTESIAN_POINT('',(11.7,70.,45.));
#1407=CARTESIAN_POINT('Origin',(10.,70.,45.));
#1408=CARTESIAN_POINT('',(11.7,70.,5.));
#1409=CARTESIAN_POINT('',(11.7,70.,5.));
#1410=CARTESIAN_POINT('Origin',(10.,70.,5.));
#1411=CARTESIAN_POINT('Origin',(10.,70.,5.));
#1412=CARTESIAN_POINT('',(15.,70.,45.));
#1413=CARTESIAN_POINT('Origin',(10.,70.,45.));
#1414=CARTESIAN_POINT('',(15.,70.,5.));
#1415=CARTESIAN_POINT('Origin',(10.,70.,45.));
#1416=CARTESIAN_POINT('Origin',(70.,90.,5.));
#1417=CARTESIAN_POINT('Origin',(130.,70.,5.));
#1418=CARTESIAN_POINT('',(131.7,70.,45.));
#1419=CARTESIAN_POINT('Origin',(130.,70.,45.));
#1420=CARTESIAN_POINT('',(131.7,70.,5.));
#1421=CARTESIAN_POINT('',(131.7,70.,5.));
#1422=CARTESIAN_POINT('Origin',(130.,70.,5.));
#1423=CARTESIAN_POINT('Origin',(130.,70.,5.));
#1424=CARTESIAN_POINT('',(135.,70.,45.));
#1425=CARTESIAN_POINT('Origin',(130.,70.,45.));
#1426=CARTESIAN_POINT('',(135.,70.,5.));
#1427=CARTESIAN_POINT('Origin',(130.,70.,45.));
#1428=CARTESIAN_POINT('Origin',(70.,90.,5.));
#1429=CARTESIAN_POINT('Origin',(10.,110.,5.));
#1430=CARTESIAN_POINT('',(11.7,110.,45.));
#1431=CARTESIAN_POINT('Origin',(10.,110.,45.));
#1432=CARTESIAN_POINT('',(11.7,110.,5.));
#1433=CARTESIAN_POINT('',(11.7,110.,5.));
#1434=CARTESIAN_POINT('Origin',(10.,110.,5.));
#1435=CARTESIAN_POINT('Origin',(10.,110.,5.));
#1436=CARTESIAN_POINT('',(15.,110.,45.));
#1437=CARTESIAN_POINT('Origin',(10.,110.,45.));
#1438=CARTESIAN_POINT('',(15.,110.,5.));
#1439=CARTESIAN_POINT('Origin',(10.,110.,45.));
#1440=CARTESIAN_POINT('Origin',(70.,90.,5.));
#1441=CARTESIAN_POINT('Origin',(35.,40.,0.));
#1442=CARTESIAN_POINT('',(33.3,40.,0.));
#1443=CARTESIAN_POINT('',(33.3,40.,0.));
#1444=CARTESIAN_POINT('Origin',(35.,40.,0.));
#1445=CARTESIAN_POINT('Origin',(87.,130.,0.));
#1446=CARTESIAN_POINT('',(85.3,130.,0.));
#1447=CARTESIAN_POINT('',(85.3,130.,0.));
#1448=CARTESIAN_POINT('Origin',(87.,130.,0.));
#1449=CARTESIAN_POINT('Origin',(50.,167.,0.));
#1450=CARTESIAN_POINT('',(48.3,167.,0.));
#1451=CARTESIAN_POINT('',(48.3,167.,0.));
#1452=CARTESIAN_POINT('Origin',(50.,167.,0.));
#1453=CARTESIAN_POINT('Origin',(112.,40.,0.));
#1454=CARTESIAN_POINT('',(110.3,40.,0.));
#1455=CARTESIAN_POINT('',(110.3,40.,0.));
#1456=CARTESIAN_POINT('Origin',(112.,40.,0.));
#1457=CARTESIAN_POINT('Origin',(50.,130.,0.));
#1458=CARTESIAN_POINT('',(48.3,130.,0.));
#1459=CARTESIAN_POINT('',(48.3,130.,0.));
#1460=CARTESIAN_POINT('Origin',(50.,130.,0.));
#1461=CARTESIAN_POINT('Origin',(87.,167.,0.));
#1462=CARTESIAN_POINT('',(85.3,167.,0.));
#1463=CARTESIAN_POINT('',(85.3,167.,0.));
#1464=CARTESIAN_POINT('Origin',(87.,167.,0.));
#1465=CARTESIAN_POINT('Origin',(140.,180.,0.));
#1466=CARTESIAN_POINT('',(140.,180.,0.));
#1467=CARTESIAN_POINT('',(0.,180.,0.));
#1468=CARTESIAN_POINT('',(140.,180.,0.));
#1469=CARTESIAN_POINT('',(0.,180.,0.));
#1470=CARTESIAN_POINT('',(140.,180.,0.));
#1471=CARTESIAN_POINT('Origin',(140.,0.,0.));
#1472=CARTESIAN_POINT('',(140.,0.,0.));
#1473=CARTESIAN_POINT('',(140.,0.,0.));
#1474=CARTESIAN_POINT('',(140.,0.,0.));
#1475=CARTESIAN_POINT('Origin',(0.,0.,0.));
#1476=CARTESIAN_POINT('',(0.,0.,0.));
#1477=CARTESIAN_POINT('',(0.,0.,0.));
#1478=CARTESIAN_POINT('',(0.,0.,0.));
#1479=CARTESIAN_POINT('Origin',(0.,180.,0.));
#1480=CARTESIAN_POINT('',(0.,180.,0.));
#1481=CARTESIAN_POINT('Origin',(70.,90.,0.));
#1482=UNCERTAINTY_MEASURE_WITH_UNIT(LENGTH_MEASURE(0.01),#1486,
'DISTANCE_ACCURACY_VALUE',
'Maximum model space distance between geometric entities at asserted c
onnectivities');
#1483=UNCERTAINTY_MEASURE_WITH_UNIT(LENGTH_MEASURE(0.01),#1486,
'DISTANCE_ACCURACY_VALUE',
'Maximum model space distance between geometric entities at asserted c
onnectivities');
#1484=(
GEOMETRIC_REPRESENTATION_CONTEXT(3)
GLOBAL_UNCERTAINTY_ASSIGNED_CONTEXT((#1482))
GLOBAL_UNIT_ASSIGNED_CONTEXT((#1486,#1488,#1489))
REPRESENTATION_CONTEXT('','3D')
);
#1485=(
GEOMETRIC_REPRESENTATION_CONTEXT(3)
GLOBAL_UNCERTAINTY_ASSIGNED_CONTEXT((#1483))
GLOBAL_UNIT_ASSIGNED_CONTEXT((#1486,#1488,#1489))
REPRESENTATION_CONTEXT('','3D')
);
#1486=(
LENGTH_UNIT()
NAMED_UNIT(*)
SI_UNIT(.MILLI.,.METRE.)
);
#1487=(
LENGTH_UNIT()
NAMED_UNIT(*)
SI_UNIT($,.METRE.)
);
#1488=(
NAMED_UNIT(*)
PLANE_ANGLE_UNIT()
SI_UNIT($,.RADIAN.)
);
#1489=(
NAMED_UNIT(*)
SI_UNIT($,.STERADIAN.)
SOLID_ANGLE_UNIT()
);
#1490=SHAPE_DEFINITION_REPRESENTATION(#1491,#1492);
#1491=PRODUCT_DEFINITION_SHAPE('',$,#1494);
#1492=SHAPE_REPRESENTATION('',(#894),#1484);
#1493=PRODUCT_DEFINITION_CONTEXT('part definition',#1498,'design');
#1494=PRODUCT_DEFINITION('2026-07-28-16-21-27-136','lower_chassis',#1495,
#1493);
#1495=PRODUCT_DEFINITION_FORMATION('',$,#1500);
#1496=PRODUCT_RELATED_PRODUCT_CATEGORY('lower_chassis','lower_chassis',
(#1500));
#1497=APPLICATION_PROTOCOL_DEFINITION('international standard',
'automotive_design',2009,#1498);
#1498=APPLICATION_CONTEXT(
'Core Data for Automotive Mechanical Design Process');
#1499=PRODUCT_CONTEXT('part definition',#1498,'mechanical');
#1500=PRODUCT('2026-07-28-16-21-27-136','lower_chassis',$,(#1499));
#1501=PRESENTATION_STYLE_ASSIGNMENT((#1502));
#1502=SURFACE_STYLE_USAGE(.BOTH.,#1503);
#1503=SURFACE_SIDE_STYLE('',(#1504));
#1504=SURFACE_STYLE_FILL_AREA(#1505);
#1505=FILL_AREA_STYLE('Steel - Satin',(#1506));
#1506=FILL_AREA_STYLE_COLOUR('Steel - Satin',#1507);
#1507=COLOUR_RGB('Steel - Satin',0.627450980392157,0.627450980392157,0.627450980392157);
ENDSEC;
END-ISO-10303-21;
